# xmcd CD database file
#
# Track frame offsets:
#	150
#	13479
#	28443
#	42566
#	55883
#	63436
#	77381
#	91353
#	106249
#	119447
#	130406
#	145026
#	159174
#	172007
#	186146
#	197021
#	210695
#	222764
#	235497
#	248920
#	256899
#	271032
#	282903
#	296413
#	310980
#
# Disc length: 4256 seconds
#
# Revision: 0
# Processed by: cddbd v1.5.2PL0 Copyright (c) Steve Scherf et al.
# Submitted via: CDex 1.70beta2
#
DISCID=75109e19
DTITLE=Blind Willie McTell - Ultimate Blues Collection Disc 2
DYEAR=2013
DGENRE=Blues
TTITLE0=Mama, 'Taint Long Fo' Day
TTITLE1=Ticket Agent Blues
TTITLE2=Broke Down Engine Blues
TTITLE3=Kind Mama
TTITLE4=That Will Never Happen No More
TTITLE5=Georgia Rag
TTITLE6=Runnin' Me Crazy
TTITLE7=Low Rider's Blues
TTITLE8=Warm It Up To Me
TTITLE9=Beedle Um Bum
TTITLE10=Lonesome Day Blues
TTITLE11=Searching For The Desert Blues
TTITLE12=It's A Good Little Thing
TTITLE13=Stomp Down Rider
TTITLE14=Salty Dog
TTITLE15=Weary Hearted Blues
TTITLE16=Your Time To Worry
TTITLE17=B And O Blues No. 2 (Take 2)
TTITLE18=Come On Around To My House
TTITLE19=A To Z Blues
TTITLE20=Stole Rider Blues
TTITLE21=It's My Desire
TTITLE22=Dying Gambler
TTITLE23=Southern Can Is Mine
TTITLE24=Goodbye Blues
EXTD=YEAR: 2013
EXTT0=
EXTT1=
EXTT2=
EXTT3=
EXTT4=
EXTT5=
EXTT6=
EXTT7=
EXTT8=
EXTT9=
EXTT10=
EXTT11=
EXTT12=
EXTT13=
EXTT14=
EXTT15=
EXTT16=
EXTT17=
EXTT18=
EXTT19=
EXTT20=
EXTT21=
EXTT22=
EXTT23=
EXTT24=
PLAYORDER=
